<?xml version='1.0' encoding='utf-8'?>
<mxfile host="app.diagrams.net" agent="Mozilla/5.0 (Macintosh; Intel Mac OS X 10_15_7) AppleWebKit/537.36 (KHTML, like Gecko) Chrome/134.0.0.0 Safari/537.36" version="24.7.17">
  <diagram name="Page-1" id="i8QMvnhxB6tP63rHw2_T">
    <mxGraphModel dx="1253" dy="745" grid="1" gridSize="10" guides="1" tooltips="1" connect="1" arrows="1" fold="1" page="1" pageScale="1" pageWidth="850" pageHeight="1100" math="0" shadow="0">
      <root>
        <mxCell id="0" />
        <mxCell id="1" parent="0" />
        <mxCell id="4JFMtSHfGpqYQoD51Qb6-116" style="edgeStyle=none;html=1;endArrow=block;endFill=0;" edge="1" parent="1" source="4JFMtSHfGpqYQoD51Qb6-117" target="4JFMtSHfGpqYQoD51Qb6-126">
          <mxGeometry relative="0" as="geometry" />
        </mxCell>
        <mxCell id="4JFMtSHfGpqYQoD51Qb6-117" value="Stakeholder" style="swimlane;fontStyle=0;childLayout=stackLayout;horizontal=1;startSize=26;fillColor=none;horizontalStack=0;resizeParent=1;resizeParentMax=0;resizeLast=0;collapsible=1;marginBottom=0;whiteSpace=wrap;html=1;" vertex="1" parent="1">
          <mxGeometry x="0" y="0" width="240" height="104" as="geometry" />
        </mxCell>
        <mxCell id="4JFMtSHfGpqYQoD51Qb6-118" value="+ system_role=&quot;stakeholder&quot;" style="text;strokeColor=none;fillColor=none;align=left;verticalAlign=top;spacingLeft=4;spacingRight=4;overflow=hidden;rotatable=0;points=[[0,0.5],[1,0.5]];portConstraint=eastwest;whiteSpace=wrap;html=1;" vertex="1" parent="4JFMtSHfGpqYQoD51Qb6-117">
          <mxGeometry y="26" width="240" height="26" as="geometry" />
        </mxCell>
        <mxCell id="4JFMtSHfGpqYQoD51Qb6-119" value="+ stakeholder_type: StakeholderTypes" style="text;strokeColor=none;fillColor=none;align=left;verticalAlign=top;spacingLeft=4;spacingRight=4;overflow=hidden;rotatable=0;points=[[0,0.5],[1,0.5]];portConstraint=eastwest;whiteSpace=wrap;html=1;" vertex="1" parent="4JFMtSHfGpqYQoD51Qb6-117">
          <mxGeometry y="52" width="240" height="26" as="geometry" />
        </mxCell>
        <mxCell id="4JFMtSHfGpqYQoD51Qb6-120" value="+ address: string" style="text;strokeColor=none;fillColor=none;align=left;verticalAlign=top;spacingLeft=4;spacingRight=4;overflow=hidden;rotatable=0;points=[[0,0.5],[1,0.5]];portConstraint=eastwest;whiteSpace=wrap;html=1;" vertex="1" parent="4JFMtSHfGpqYQoD51Qb6-117">
          <mxGeometry y="78" width="240" height="26" as="geometry" />
        </mxCell>
        <mxCell id="4JFMtSHfGpqYQoD51Qb6-121" value="AuthenticatedUser" style="swimlane;fontStyle=0;childLayout=stackLayout;horizontal=1;startSize=26;fillColor=none;horizontalStack=0;resizeParent=1;resizeParentMax=0;resizeLast=0;collapsible=1;marginBottom=0;whiteSpace=wrap;html=1;" vertex="1" parent="1">
          <mxGeometry x="140" y="0" width="230" height="156" as="geometry">
            <mxRectangle x="290" y="140" width="210" height="30" as="alternateBounds" />
          </mxGeometry>
        </mxCell>
        <mxCell id="4JFMtSHfGpqYQoD51Qb6-122" value="+ id: UUID" style="text;strokeColor=none;fillColor=none;align=left;verticalAlign=top;spacingLeft=4;spacingRight=4;overflow=hidden;rotatable=0;points=[[0,0.5],[1,0.5]];portConstraint=eastwest;whiteSpace=wrap;html=1;" vertex="1" parent="4JFMtSHfGpqYQoD51Qb6-121">
          <mxGeometry y="26" width="230" height="26" as="geometry" />
        </mxCell>
        <mxCell id="4JFMtSHfGpqYQoD51Qb6-123" value="+&amp;nbsp;&lt;span style=&quot;color: rgb(0, 0, 0);&quot;&gt;full_name: string&lt;/span&gt;" style="text;strokeColor=none;fillColor=none;align=left;verticalAlign=top;spacingLeft=4;spacingRight=4;overflow=hidden;rotatable=0;points=[[0,0.5],[1,0.5]];portConstraint=eastwest;whiteSpace=wrap;html=1;" vertex="1" parent="4JFMtSHfGpqYQoD51Qb6-121">
          <mxGeometry y="52" width="230" height="26" as="geometry" />
        </mxCell>
        <mxCell id="4JFMtSHfGpqYQoD51Qb6-124" value="+ phone: string" style="text;strokeColor=none;fillColor=none;align=left;verticalAlign=top;spacingLeft=4;spacingRight=4;overflow=hidden;rotatable=0;points=[[0,0.5],[1,0.5]];portConstraint=eastwest;whiteSpace=wrap;html=1;" vertex="1" parent="4JFMtSHfGpqYQoD51Qb6-121">
          <mxGeometry y="78" width="230" height="26" as="geometry" />
        </mxCell>
        <mxCell id="4JFMtSHfGpqYQoD51Qb6-125" value="+ email: string" style="text;strokeColor=none;fillColor=none;align=left;verticalAlign=top;spacingLeft=4;spacingRight=4;overflow=hidden;rotatable=0;points=[[0,0.5],[1,0.5]];portConstraint=eastwest;whiteSpace=wrap;html=1;" vertex="1" parent="4JFMtSHfGpqYQoD51Qb6-121">
          <mxGeometry y="104" width="230" height="26" as="geometry" />
        </mxCell>
        <mxCell id="4JFMtSHfGpqYQoD51Qb6-126" value="+ system_role: SystemRoleType" style="text;strokeColor=none;fillColor=none;align=left;verticalAlign=top;spacingLeft=4;spacingRight=4;overflow=hidden;rotatable=0;points=[[0,0.5],[1,0.5]];portConstraint=eastwest;whiteSpace=wrap;html=1;" vertex="1" parent="4JFMtSHfGpqYQoD51Qb6-121">
          <mxGeometry y="130" width="230" height="26" as="geometry" />
        </mxCell>
        <mxCell id="4JFMtSHfGpqYQoD51Qb6-127" value="" style="fontStyle=1;align=center;verticalAlign=middle;childLayout=stackLayout;horizontal=1;horizontalStack=0;resizeParent=1;resizeParentMax=0;resizeLast=0;marginBottom=0;" vertex="1" parent="1">
          <mxGeometry x="280" y="0" width="200" height="96" as="geometry" />
        </mxCell>
        <mxCell id="4JFMtSHfGpqYQoD51Qb6-128" value="&amp;lt;&amp;lt;enumeration&amp;gt;&amp;gt;" style="html=1;align=center;spacing=0;verticalAlign=middle;strokeColor=none;fillColor=none;whiteSpace=wrap;" vertex="1" parent="4JFMtSHfGpqYQoD51Qb6-127">
          <mxGeometry width="200" height="20" as="geometry" />
        </mxCell>
        <mxCell id="4JFMtSHfGpqYQoD51Qb6-129" value="SystemRoleType" style="html=1;align=center;spacing=0;verticalAlign=middle;strokeColor=none;fillColor=none;whiteSpace=wrap;fontStyle=1;" vertex="1" parent="4JFMtSHfGpqYQoD51Qb6-127">
          <mxGeometry y="20" width="200" height="14" as="geometry" />
        </mxCell>
        <mxCell id="4JFMtSHfGpqYQoD51Qb6-130" value="" style="line;strokeWidth=0.25;fillColor=none;align=left;verticalAlign=middle;spacingTop=-1;spacingLeft=3;spacingRight=3;rotatable=0;labelPosition=right;points=[];portConstraint=eastwest;" vertex="1" parent="4JFMtSHfGpqYQoD51Qb6-127">
          <mxGeometry y="34" width="200" height="8" as="geometry" />
        </mxCell>
        <mxCell id="4JFMtSHfGpqYQoD51Qb6-131" value="&quot;admin&quot;" style="html=1;align=left;spacing=0;spacingLeft=8;verticalAlign=middle;strokeColor=none;fillColor=none;whiteSpace=wrap;" vertex="1" parent="4JFMtSHfGpqYQoD51Qb6-127">
          <mxGeometry y="42" width="200" height="16" as="geometry" />
        </mxCell>
        <mxCell id="4JFMtSHfGpqYQoD51Qb6-132" value="&quot;stakeholder&quot;" style="html=1;align=left;spacing=0;spacingLeft=8;verticalAlign=middle;strokeColor=none;fillColor=none;whiteSpace=wrap;" vertex="1" parent="4JFMtSHfGpqYQoD51Qb6-127">
          <mxGeometry y="58" width="200" height="16" as="geometry" />
        </mxCell>
        <mxCell id="4JFMtSHfGpqYQoD51Qb6-133" value="&quot;user&quot;" style="html=1;align=left;spacing=0;spacingLeft=8;verticalAlign=middle;strokeColor=none;fillColor=none;whiteSpace=wrap;" vertex="1" parent="4JFMtSHfGpqYQoD51Qb6-127">
          <mxGeometry y="74" width="200" height="16" as="geometry" />
        </mxCell>
        <mxCell id="4JFMtSHfGpqYQoD51Qb6-134" value="" style="html=1;align=left;spacing=0;spacingLeft=8;verticalAlign=middle;strokeColor=none;fillColor=none;whiteSpace=wrap;" vertex="1" parent="4JFMtSHfGpqYQoD51Qb6-127">
          <mxGeometry y="90" width="200" height="6" as="geometry" />
        </mxCell>
        <mxCell id="4JFMtSHfGpqYQoD51Qb6-135" value="" style="fontStyle=1;align=center;verticalAlign=middle;childLayout=stackLayout;horizontal=1;horizontalStack=0;resizeParent=1;resizeParentMax=0;resizeLast=0;marginBottom=0;" vertex="1" parent="1">
          <mxGeometry x="0" y="80" width="200" height="80" as="geometry" />
        </mxCell>
        <mxCell id="4JFMtSHfGpqYQoD51Qb6-136" value="&amp;lt;&amp;lt;enumeration&amp;gt;&amp;gt;" style="html=1;align=center;spacing=0;verticalAlign=middle;strokeColor=none;fillColor=none;whiteSpace=wrap;" vertex="1" parent="4JFMtSHfGpqYQoD51Qb6-135">
          <mxGeometry width="200" height="20" as="geometry" />
        </mxCell>
        <mxCell id="4JFMtSHfGpqYQoD51Qb6-137" value="StakeholderTypes" style="html=1;align=center;spacing=0;verticalAlign=middle;strokeColor=none;fillColor=none;whiteSpace=wrap;fontStyle=1;" vertex="1" parent="4JFMtSHfGpqYQoD51Qb6-135">
          <mxGeometry y="20" width="200" height="14" as="geometry" />
        </mxCell>
        <mxCell id="4JFMtSHfGpqYQoD51Qb6-138" value="" style="line;strokeWidth=0.25;fillColor=none;align=left;verticalAlign=middle;spacingTop=-1;spacingLeft=3;spacingRight=3;rotatable=0;labelPosition=right;points=[];portConstraint=eastwest;" vertex="1" parent="4JFMtSHfGpqYQoD51Qb6-135">
          <mxGeometry y="34" width="200" height="8" as="geometry" />
        </mxCell>
        <mxCell id="4JFMtSHfGpqYQoD51Qb6-139" value="&quot;educational&quot;" style="html=1;align=left;spacing=0;spacingLeft=8;verticalAlign=middle;strokeColor=none;fillColor=none;whiteSpace=wrap;" vertex="1" parent="4JFMtSHfGpqYQoD51Qb6-135">
          <mxGeometry y="42" width="200" height="16" as="geometry" />
        </mxCell>
        <mxCell id="4JFMtSHfGpqYQoD51Qb6-140" value="&quot;organization&quot;" style="html=1;align=left;spacing=0;spacingLeft=8;verticalAlign=middle;strokeColor=none;fillColor=none;whiteSpace=wrap;" vertex="1" parent="4JFMtSHfGpqYQoD51Qb6-135">
          <mxGeometry y="58" width="200" height="16" as="geometry" />
        </mxCell>
        <mxCell id="4JFMtSHfGpqYQoD51Qb6-141" value="" style="html=1;align=left;spacing=0;spacingLeft=8;verticalAlign=middle;strokeColor=none;fillColor=none;whiteSpace=wrap;" vertex="1" parent="4JFMtSHfGpqYQoD51Qb6-135">
          <mxGeometry y="74" width="200" height="6" as="geometry" />
        </mxCell>
        <mxCell id="4JFMtSHfGpqYQoD51Qb6-142" style="edgeStyle=none;html=1;exitX=0.5;exitY=0;exitDx=0;exitDy=0;endArrow=block;endFill=0;" edge="1" parent="1" source="4JFMtSHfGpqYQoD51Qb6-143" target="4JFMtSHfGpqYQoD51Qb6-126">
          <mxGeometry relative="0" as="geometry" />
        </mxCell>
        <mxCell id="4JFMtSHfGpqYQoD51Qb6-143" value="User" style="swimlane;fontStyle=0;childLayout=stackLayout;horizontal=1;startSize=26;fillColor=none;horizontalStack=0;resizeParent=1;resizeParentMax=0;resizeLast=0;collapsible=1;marginBottom=0;whiteSpace=wrap;html=1;" vertex="1" parent="1">
          <mxGeometry x="140" y="80" width="140" height="78" as="geometry" />
        </mxCell>
        <mxCell id="4JFMtSHfGpqYQoD51Qb6-144" value="+ system_role=&quot;user&quot;" style="text;strokeColor=none;fillColor=none;align=left;verticalAlign=top;spacingLeft=4;spacingRight=4;overflow=hidden;rotatable=0;points=[[0,0.5],[1,0.5]];portConstraint=eastwest;whiteSpace=wrap;html=1;" vertex="1" parent="4JFMtSHfGpqYQoD51Qb6-143">
          <mxGeometry y="26" width="140" height="26" as="geometry" />
        </mxCell>
        <mxCell id="4JFMtSHfGpqYQoD51Qb6-145" value="+ career: CareerTypes" style="text;strokeColor=none;fillColor=none;align=left;verticalAlign=top;spacingLeft=4;spacingRight=4;overflow=hidden;rotatable=0;points=[[0,0.5],[1,0.5]];portConstraint=eastwest;whiteSpace=wrap;html=1;" vertex="1" parent="4JFMtSHfGpqYQoD51Qb6-143">
          <mxGeometry y="52" width="140" height="26" as="geometry" />
        </mxCell>
        <mxCell id="4JFMtSHfGpqYQoD51Qb6-146" value="" style="fontStyle=1;align=center;verticalAlign=middle;childLayout=stackLayout;horizontal=1;horizontalStack=0;resizeParent=1;resizeParentMax=0;resizeLast=0;marginBottom=0;" vertex="1" parent="1">
          <mxGeometry x="280" y="80" width="200" height="106" as="geometry" />
        </mxCell>
        <mxCell id="4JFMtSHfGpqYQoD51Qb6-147" value="&amp;lt;&amp;lt;enumeration&amp;gt;&amp;gt;" style="html=1;align=center;spacing=0;verticalAlign=middle;strokeColor=none;fillColor=none;whiteSpace=wrap;" vertex="1" parent="4JFMtSHfGpqYQoD51Qb6-146">
          <mxGeometry width="200" height="20" as="geometry" />
        </mxCell>
        <mxCell id="4JFMtSHfGpqYQoD51Qb6-148" value="CareerTypes" style="html=1;align=center;spacing=0;verticalAlign=middle;strokeColor=none;fillColor=none;whiteSpace=wrap;fontStyle=1;" vertex="1" parent="4JFMtSHfGpqYQoD51Qb6-146">
          <mxGeometry y="20" width="200" height="14" as="geometry" />
        </mxCell>
        <mxCell id="4JFMtSHfGpqYQoD51Qb6-149" value="" style="line;strokeWidth=0.25;fillColor=none;align=left;verticalAlign=middle;spacingTop=-1;spacingLeft=3;spacingRight=3;rotatable=0;labelPosition=right;points=[];portConstraint=eastwest;" vertex="1" parent="4JFMtSHfGpqYQoD51Qb6-146">
          <mxGeometry y="34" width="200" height="8" as="geometry" />
        </mxCell>
        <mxCell id="4JFMtSHfGpqYQoD51Qb6-150" value="&quot;student&quot;" style="html=1;align=left;spacing=0;spacingLeft=8;verticalAlign=middle;strokeColor=none;fillColor=none;whiteSpace=wrap;" vertex="1" parent="4JFMtSHfGpqYQoD51Qb6-146">
          <mxGeometry y="42" width="200" height="16" as="geometry" />
        </mxCell>
        <mxCell id="4JFMtSHfGpqYQoD51Qb6-151" value="&quot;professional&quot;" style="html=1;align=left;spacing=0;spacingLeft=8;verticalAlign=middle;strokeColor=none;fillColor=none;whiteSpace=wrap;" vertex="1" parent="4JFMtSHfGpqYQoD51Qb6-146">
          <mxGeometry y="58" width="200" height="16" as="geometry" />
        </mxCell>
        <mxCell id="4JFMtSHfGpqYQoD51Qb6-152" value="&quot;other&quot;" style="html=1;align=left;spacing=0;spacingLeft=8;verticalAlign=middle;strokeColor=none;fillColor=none;whiteSpace=wrap;" vertex="1" parent="4JFMtSHfGpqYQoD51Qb6-146">
          <mxGeometry y="74" width="200" height="16" as="geometry" />
        </mxCell>
        <mxCell id="4JFMtSHfGpqYQoD51Qb6-153" value="&quot;faculty&quot;" style="html=1;align=left;spacing=0;spacingLeft=8;verticalAlign=middle;strokeColor=none;fillColor=none;whiteSpace=wrap;" vertex="1" parent="4JFMtSHfGpqYQoD51Qb6-146">
          <mxGeometry y="90" width="200" height="16" as="geometry" />
        </mxCell>
        <mxCell id="4JFMtSHfGpqYQoD51Qb6-154" value="Univiersity" style="swimlane;fontStyle=0;childLayout=stackLayout;horizontal=1;startSize=26;fillColor=none;horizontalStack=0;resizeParent=1;resizeParentMax=0;resizeLast=0;collapsible=1;marginBottom=0;whiteSpace=wrap;html=1;" vertex="1" parent="1">
          <mxGeometry x="0" y="160" width="210" height="48" as="geometry" />
        </mxCell>
        <mxCell id="4JFMtSHfGpqYQoD51Qb6-155" value="stakeholder_type = &quot;educational&quot;" style="text;strokeColor=none;fillColor=none;align=left;verticalAlign=top;spacingLeft=4;spacingRight=4;overflow=hidden;rotatable=0;points=[[0,0.5],[1,0.5]];portConstraint=eastwest;whiteSpace=wrap;html=1;" vertex="1" parent="4JFMtSHfGpqYQoD51Qb6-154">
          <mxGeometry y="26" width="210" height="22" as="geometry" />
        </mxCell>
        <mxCell id="4JFMtSHfGpqYQoD51Qb6-156" style="edgeStyle=none;html=1;entryX=0.454;entryY=1.154;entryDx=0;entryDy=0;entryPerimeter=0;endArrow=block;endFill=0;" edge="1" parent="1" source="4JFMtSHfGpqYQoD51Qb6-154" target="4JFMtSHfGpqYQoD51Qb6-120">
          <mxGeometry relative="0" as="geometry" />
        </mxCell>
        <mxCell id="4JFMtSHfGpqYQoD51Qb6-157" style="edgeStyle=none;html=1;endArrow=block;endFill=0;" edge="1" parent="1" source="4JFMtSHfGpqYQoD51Qb6-158" target="4JFMtSHfGpqYQoD51Qb6-145">
          <mxGeometry relative="0" as="geometry" />
        </mxCell>
        <mxCell id="4JFMtSHfGpqYQoD51Qb6-158" value="Student" style="swimlane;fontStyle=0;childLayout=stackLayout;horizontal=1;startSize=26;fillColor=none;horizontalStack=0;resizeParent=1;resizeParentMax=0;resizeLast=0;collapsible=1;marginBottom=0;whiteSpace=wrap;html=1;" vertex="1" parent="1">
          <mxGeometry x="140" y="160" width="140" height="52" as="geometry" />
        </mxCell>
        <mxCell id="4JFMtSHfGpqYQoD51Qb6-159" value="+ career = &quot;student&quot;" style="text;strokeColor=none;fillColor=none;align=left;verticalAlign=top;spacingLeft=4;spacingRight=4;overflow=hidden;rotatable=0;points=[[0,0.5],[1,0.5]];portConstraint=eastwest;whiteSpace=wrap;html=1;" vertex="1" parent="4JFMtSHfGpqYQoD51Qb6-158">
          <mxGeometry y="26" width="140" height="26" as="geometry" />
        </mxCell>
        <mxCell id="4JFMtSHfGpqYQoD51Qb6-160" style="edgeStyle=none;html=1;entryX=0.981;entryY=-0.136;entryDx=0;entryDy=0;entryPerimeter=0;" edge="1" parent="1" source="4JFMtSHfGpqYQoD51Qb6-159" target="4JFMtSHfGpqYQoD51Qb6-155">
          <mxGeometry relative="0" as="geometry" />
        </mxCell>
        <mxCell id="4JFMtSHfGpqYQoD51Qb6-161" value="&lt;span style=&quot;color: rgb(0, 0, 0); font-size: 12px; background-color: rgb(251, 251, 251);&quot;&gt;Studies at&lt;/span&gt;" style="edgeLabel;html=1;align=center;verticalAlign=middle;resizable=0;points=[];" vertex="1" connectable="0" parent="4JFMtSHfGpqYQoD51Qb6-160">
          <mxGeometry x="280" y="160" relative="1" as="geometry" width="120" height="60">
            <mxPoint x="-1" as="offset" />
          </mxGeometry>
        </mxCell>
        <mxCell id="4JFMtSHfGpqYQoD51Qb6-162" value="Faculty" style="swimlane;fontStyle=0;childLayout=stackLayout;horizontal=1;startSize=26;fillColor=none;horizontalStack=0;resizeParent=1;resizeParentMax=0;resizeLast=0;collapsible=1;marginBottom=0;whiteSpace=wrap;html=1;" vertex="1" parent="1">
          <mxGeometry x="0" y="240" width="140" height="52" as="geometry" />
        </mxCell>
        <mxCell id="4JFMtSHfGpqYQoD51Qb6-163" value="+ career = &quot;faculty&quot;" style="text;strokeColor=none;fillColor=none;align=left;verticalAlign=top;spacingLeft=4;spacingRight=4;overflow=hidden;rotatable=0;points=[[0,0.5],[1,0.5]];portConstraint=eastwest;whiteSpace=wrap;html=1;" vertex="1" parent="4JFMtSHfGpqYQoD51Qb6-162">
          <mxGeometry y="26" width="140" height="26" as="geometry" />
        </mxCell>
        <mxCell id="4JFMtSHfGpqYQoD51Qb6-164" style="edgeStyle=none;html=1;entryX=0.976;entryY=0.909;entryDx=0;entryDy=0;entryPerimeter=0;" edge="1" parent="1" source="4JFMtSHfGpqYQoD51Qb6-162" target="4JFMtSHfGpqYQoD51Qb6-155">
          <mxGeometry relative="0" as="geometry" />
        </mxCell>
        <mxCell id="4JFMtSHfGpqYQoD51Qb6-165" value="&lt;span style=&quot;color: rgb(0, 0, 0); font-size: 12px; background-color: rgb(251, 251, 251);&quot;&gt;Teaches at&lt;/span&gt;" style="edgeLabel;html=1;align=center;verticalAlign=middle;resizable=0;points=[];" vertex="1" connectable="0" parent="4JFMtSHfGpqYQoD51Qb6-164">
          <mxGeometry x="140" relative="1" as="geometry" y="240" width="120" height="60">
            <mxPoint as="offset" />
          </mxGeometry>
        </mxCell>
        <mxCell id="4JFMtSHfGpqYQoD51Qb6-166" style="edgeStyle=none;html=1;entryX=0.35;entryY=1.115;entryDx=0;entryDy=0;entryPerimeter=0;endArrow=block;endFill=0;" edge="1" parent="1" source="4JFMtSHfGpqYQoD51Qb6-162" target="4JFMtSHfGpqYQoD51Qb6-145">
          <mxGeometry relative="0" as="geometry" />
        </mxCell>
        <mxCell id="4JFMtSHfGpqYQoD51Qb6-167" style="edgeStyle=none;html=1;entryX=1;entryY=0.5;entryDx=0;entryDy=0;endArrow=block;endFill=0;" edge="1" parent="1" source="4JFMtSHfGpqYQoD51Qb6-168" target="4JFMtSHfGpqYQoD51Qb6-126">
          <mxGeometry relative="0" as="geometry" />
        </mxCell>
        <mxCell id="4JFMtSHfGpqYQoD51Qb6-168" value="Admin" style="swimlane;fontStyle=0;childLayout=stackLayout;horizontal=1;startSize=26;fillColor=none;horizontalStack=0;resizeParent=1;resizeParentMax=0;resizeLast=0;collapsible=1;marginBottom=0;whiteSpace=wrap;html=1;" vertex="1" parent="1">
          <mxGeometry x="280" y="240" width="240" height="52" as="geometry" />
        </mxCell>
        <mxCell id="4JFMtSHfGpqYQoD51Qb6-169" value="+ system_role=&quot;admin&quot;" style="text;strokeColor=none;fillColor=none;align=left;verticalAlign=top;spacingLeft=4;spacingRight=4;overflow=hidden;rotatable=0;points=[[0,0.5],[1,0.5]];portConstraint=eastwest;whiteSpace=wrap;html=1;" vertex="1" parent="4JFMtSHfGpqYQoD51Qb6-168">
          <mxGeometry y="26" width="240" height="26" as="geometry" />
        </mxCell>
        <mxCell id="4JFMtSHfGpqYQoD51Qb6-170" value="Event" style="swimlane;fontStyle=0;childLayout=stackLayout;horizontal=1;startSize=26;fillColor=none;horizontalStack=0;resizeParent=1;resizeParentMax=0;resizeLast=0;collapsible=1;marginBottom=0;whiteSpace=wrap;html=1;" vertex="1" parent="1">
          <mxGeometry x="0" y="320" width="190" height="234" as="geometry" />
        </mxCell>
        <mxCell id="4JFMtSHfGpqYQoD51Qb6-171" value="+ id: UUID" style="text;strokeColor=none;fillColor=none;align=left;verticalAlign=top;spacingLeft=4;spacingRight=4;overflow=hidden;rotatable=0;points=[[0,0.5],[1,0.5]];portConstraint=eastwest;whiteSpace=wrap;html=1;" vertex="1" parent="4JFMtSHfGpqYQoD51Qb6-170">
          <mxGeometry y="26" width="190" height="26" as="geometry" />
        </mxCell>
        <mxCell id="4JFMtSHfGpqYQoD51Qb6-172" value="+ title: string" style="text;strokeColor=none;fillColor=none;align=left;verticalAlign=top;spacingLeft=4;spacingRight=4;overflow=hidden;rotatable=0;points=[[0,0.5],[1,0.5]];portConstraint=eastwest;whiteSpace=wrap;html=1;" vertex="1" parent="4JFMtSHfGpqYQoD51Qb6-170">
          <mxGeometry y="52" width="190" height="26" as="geometry" />
        </mxCell>
        <mxCell id="4JFMtSHfGpqYQoD51Qb6-173" value="+ description: string" style="text;strokeColor=none;fillColor=none;align=left;verticalAlign=top;spacingLeft=4;spacingRight=4;overflow=hidden;rotatable=0;points=[[0,0.5],[1,0.5]];portConstraint=eastwest;whiteSpace=wrap;html=1;" vertex="1" parent="4JFMtSHfGpqYQoD51Qb6-170">
          <mxGeometry y="78" width="190" height="26" as="geometry" />
        </mxCell>
        <mxCell id="4JFMtSHfGpqYQoD51Qb6-174" value="+ location: string" style="text;strokeColor=none;fillColor=none;align=left;verticalAlign=top;spacingLeft=4;spacingRight=4;overflow=hidden;rotatable=0;points=[[0,0.5],[1,0.5]];portConstraint=eastwest;whiteSpace=wrap;html=1;" vertex="1" parent="4JFMtSHfGpqYQoD51Qb6-170">
          <mxGeometry y="104" width="190" height="26" as="geometry" />
        </mxCell>
        <mxCell id="4JFMtSHfGpqYQoD51Qb6-175" value="+ event_datetime: Datetime" style="text;strokeColor=none;fillColor=none;align=left;verticalAlign=top;spacingLeft=4;spacingRight=4;overflow=hidden;rotatable=0;points=[[0,0.5],[1,0.5]];portConstraint=eastwest;whiteSpace=wrap;html=1;" vertex="1" parent="4JFMtSHfGpqYQoD51Qb6-170">
          <mxGeometry y="130" width="190" height="26" as="geometry" />
        </mxCell>
        <mxCell id="4JFMtSHfGpqYQoD51Qb6-176" value="+ base_price: float" style="text;strokeColor=none;fillColor=none;align=left;verticalAlign=top;spacingLeft=4;spacingRight=4;overflow=hidden;rotatable=0;points=[[0,0.5],[1,0.5]];portConstraint=eastwest;whiteSpace=wrap;html=1;" vertex="1" parent="4JFMtSHfGpqYQoD51Qb6-170">
          <mxGeometry y="156" width="190" height="26" as="geometry" />
        </mxCell>
        <mxCell id="4JFMtSHfGpqYQoD51Qb6-177" value="+ status: EventStatusType" style="text;strokeColor=none;fillColor=none;align=left;verticalAlign=top;spacingLeft=4;spacingRight=4;overflow=hidden;rotatable=0;points=[[0,0.5],[1,0.5]];portConstraint=eastwest;whiteSpace=wrap;html=1;" vertex="1" parent="4JFMtSHfGpqYQoD51Qb6-170">
          <mxGeometry y="182" width="190" height="26" as="geometry" />
        </mxCell>
        <mxCell id="4JFMtSHfGpqYQoD51Qb6-178" value="+ participation: ParticipationType" style="text;strokeColor=none;fillColor=none;align=left;verticalAlign=top;spacingLeft=4;spacingRight=4;overflow=hidden;rotatable=0;points=[[0,0.5],[1,0.5]];portConstraint=eastwest;whiteSpace=wrap;html=1;" vertex="1" parent="4JFMtSHfGpqYQoD51Qb6-170">
          <mxGeometry y="208" width="190" height="26" as="geometry" />
        </mxCell>
        <mxCell id="4JFMtSHfGpqYQoD51Qb6-179" style="edgeStyle=none;html=1;exitX=0.5;exitY=0;exitDx=0;exitDy=0;entryX=0.177;entryY=0.92;entryDx=0;entryDy=0;entryPerimeter=0;" edge="1" parent="1" source="4JFMtSHfGpqYQoD51Qb6-170" target="4JFMtSHfGpqYQoD51Qb6-145">
          <mxGeometry relative="0" as="geometry" />
        </mxCell>
        <mxCell id="4JFMtSHfGpqYQoD51Qb6-180" value="owned_by" style="edgeLabel;html=1;align=center;verticalAlign=middle;resizable=0;points=[];" vertex="1" connectable="0" parent="4JFMtSHfGpqYQoD51Qb6-179">
          <mxGeometry x="140" y="320" relative="1" as="geometry" width="120" height="60">
            <mxPoint x="1" as="offset" />
          </mxGeometry>
        </mxCell>
        <mxCell id="4JFMtSHfGpqYQoD51Qb6-181" value="event_stakeholders" style="swimlane;fontStyle=0;childLayout=stackLayout;horizontal=1;startSize=26;fillColor=none;horizontalStack=0;resizeParent=1;resizeParentMax=0;resizeLast=0;collapsible=1;marginBottom=0;whiteSpace=wrap;html=1;" vertex="1" parent="1">
          <mxGeometry x="280" y="320" width="250" height="130" as="geometry" />
        </mxCell>
        <mxCell id="4JFMtSHfGpqYQoD51Qb6-182" value="+ id: UUID" style="text;strokeColor=none;fillColor=none;align=left;verticalAlign=top;spacingLeft=4;spacingRight=4;overflow=hidden;rotatable=0;points=[[0,0.5],[1,0.5]];portConstraint=eastwest;whiteSpace=wrap;html=1;" vertex="1" parent="4JFMtSHfGpqYQoD51Qb6-181">
          <mxGeometry y="26" width="250" height="26" as="geometry" />
        </mxCell>
        <mxCell id="4JFMtSHfGpqYQoD51Qb6-183" value="+ status: EventStakeholderType" style="text;strokeColor=none;fillColor=none;align=left;verticalAlign=top;spacingLeft=4;spacingRight=4;overflow=hidden;rotatable=0;points=[[0,0.5],[1,0.5]];portConstraint=eastwest;whiteSpace=wrap;html=1;" vertex="1" parent="4JFMtSHfGpqYQoD51Qb6-181">
          <mxGeometry y="52" width="250" height="26" as="geometry" />
        </mxCell>
        <mxCell id="4JFMtSHfGpqYQoD51Qb6-184" value="+ event: Event" style="text;strokeColor=none;fillColor=none;align=left;verticalAlign=top;spacingLeft=4;spacingRight=4;overflow=hidden;rotatable=0;points=[[0,0.5],[1,0.5]];portConstraint=eastwest;whiteSpace=wrap;html=1;" vertex="1" parent="4JFMtSHfGpqYQoD51Qb6-181">
          <mxGeometry y="78" width="250" height="26" as="geometry" />
        </mxCell>
        <mxCell id="4JFMtSHfGpqYQoD51Qb6-185" value="+ stakeholder: Stakeholder" style="text;strokeColor=none;fillColor=none;align=left;verticalAlign=top;spacingLeft=4;spacingRight=4;overflow=hidden;rotatable=0;points=[[0,0.5],[1,0.5]];portConstraint=eastwest;whiteSpace=wrap;html=1;" vertex="1" parent="4JFMtSHfGpqYQoD51Qb6-181">
          <mxGeometry y="104" width="250" height="26" as="geometry" />
        </mxCell>
        <mxCell id="4JFMtSHfGpqYQoD51Qb6-186" value="" style="fontStyle=1;align=center;verticalAlign=middle;childLayout=stackLayout;horizontal=1;horizontalStack=0;resizeParent=1;resizeParentMax=0;resizeLast=0;marginBottom=0;" vertex="1" parent="1">
          <mxGeometry x="0" y="400" width="200" height="138" as="geometry" />
        </mxCell>
        <mxCell id="4JFMtSHfGpqYQoD51Qb6-187" value="&amp;lt;&amp;lt;enumeration&amp;gt;&amp;gt;" style="html=1;align=center;spacing=0;verticalAlign=middle;strokeColor=none;fillColor=none;whiteSpace=wrap;" vertex="1" parent="4JFMtSHfGpqYQoD51Qb6-186">
          <mxGeometry width="200" height="20" as="geometry" />
        </mxCell>
        <mxCell id="4JFMtSHfGpqYQoD51Qb6-188" value="EventStatusType" style="html=1;align=center;spacing=0;verticalAlign=middle;strokeColor=none;fillColor=none;whiteSpace=wrap;fontStyle=1;" vertex="1" parent="4JFMtSHfGpqYQoD51Qb6-186">
          <mxGeometry y="20" width="200" height="14" as="geometry" />
        </mxCell>
        <mxCell id="4JFMtSHfGpqYQoD51Qb6-189" value="" style="line;strokeWidth=0.25;fillColor=none;align=left;verticalAlign=middle;spacingTop=-1;spacingLeft=3;spacingRight=3;rotatable=0;labelPosition=right;points=[];portConstraint=eastwest;" vertex="1" parent="4JFMtSHfGpqYQoD51Qb6-186">
          <mxGeometry y="34" width="200" height="8" as="geometry" />
        </mxCell>
        <mxCell id="4JFMtSHfGpqYQoD51Qb6-190" value="&quot;pending&quot;" style="html=1;align=left;spacing=0;spacingLeft=8;verticalAlign=middle;strokeColor=none;fillColor=none;whiteSpace=wrap;" vertex="1" parent="4JFMtSHfGpqYQoD51Qb6-186">
          <mxGeometry y="42" width="200" height="16" as="geometry" />
        </mxCell>
        <mxCell id="4JFMtSHfGpqYQoD51Qb6-191" value="&quot;denied&quot;" style="html=1;align=left;spacing=0;spacingLeft=8;verticalAlign=middle;strokeColor=none;fillColor=none;whiteSpace=wrap;" vertex="1" parent="4JFMtSHfGpqYQoD51Qb6-186">
          <mxGeometry y="58" width="200" height="16" as="geometry" />
        </mxCell>
        <mxCell id="4JFMtSHfGpqYQoD51Qb6-192" value="&quot;active&quot;" style="html=1;align=left;spacing=0;spacingLeft=8;verticalAlign=middle;strokeColor=none;fillColor=none;whiteSpace=wrap;" vertex="1" parent="4JFMtSHfGpqYQoD51Qb6-186">
          <mxGeometry y="74" width="200" height="16" as="geometry" />
        </mxCell>
        <mxCell id="4JFMtSHfGpqYQoD51Qb6-193" value="&quot;cancelled&quot;" style="html=1;align=left;spacing=0;spacingLeft=8;verticalAlign=middle;strokeColor=none;fillColor=none;whiteSpace=wrap;" vertex="1" parent="4JFMtSHfGpqYQoD51Qb6-186">
          <mxGeometry y="90" width="200" height="16" as="geometry" />
        </mxCell>
        <mxCell id="4JFMtSHfGpqYQoD51Qb6-194" value="&quot;postponed&quot;" style="html=1;align=left;spacing=0;spacingLeft=8;verticalAlign=middle;strokeColor=none;fillColor=none;whiteSpace=wrap;" vertex="1" parent="4JFMtSHfGpqYQoD51Qb6-186">
          <mxGeometry y="106" width="200" height="16" as="geometry" />
        </mxCell>
        <mxCell id="4JFMtSHfGpqYQoD51Qb6-195" value="&quot;completed&quot;" style="html=1;align=left;spacing=0;spacingLeft=8;verticalAlign=middle;strokeColor=none;fillColor=none;whiteSpace=wrap;" vertex="1" parent="4JFMtSHfGpqYQoD51Qb6-186">
          <mxGeometry y="122" width="200" height="16" as="geometry" />
        </mxCell>
        <mxCell id="4JFMtSHfGpqYQoD51Qb6-196" value="" style="fontStyle=1;align=center;verticalAlign=middle;childLayout=stackLayout;horizontal=1;horizontalStack=0;resizeParent=1;resizeParentMax=0;resizeLast=0;marginBottom=0;" vertex="1" parent="1">
          <mxGeometry x="140" y="400" width="200" height="90" as="geometry" />
        </mxCell>
        <mxCell id="4JFMtSHfGpqYQoD51Qb6-197" value="&amp;lt;&amp;lt;enumeration&amp;gt;&amp;gt;" style="html=1;align=center;spacing=0;verticalAlign=middle;strokeColor=none;fillColor=none;whiteSpace=wrap;" vertex="1" parent="4JFMtSHfGpqYQoD51Qb6-196">
          <mxGeometry width="200" height="20" as="geometry" />
        </mxCell>
        <mxCell id="4JFMtSHfGpqYQoD51Qb6-198" value="StakeholderEventStatusType" style="html=1;align=center;spacing=0;verticalAlign=middle;strokeColor=none;fillColor=none;whiteSpace=wrap;fontStyle=1;" vertex="1" parent="4JFMtSHfGpqYQoD51Qb6-196">
          <mxGeometry y="20" width="200" height="14" as="geometry" />
        </mxCell>
        <mxCell id="4JFMtSHfGpqYQoD51Qb6-199" value="" style="line;strokeWidth=0.25;fillColor=none;align=left;verticalAlign=middle;spacingTop=-1;spacingLeft=3;spacingRight=3;rotatable=0;labelPosition=right;points=[];portConstraint=eastwest;" vertex="1" parent="4JFMtSHfGpqYQoD51Qb6-196">
          <mxGeometry y="34" width="200" height="8" as="geometry" />
        </mxCell>
        <mxCell id="4JFMtSHfGpqYQoD51Qb6-200" value="&quot;pending&quot;" style="html=1;align=left;spacing=0;spacingLeft=8;verticalAlign=middle;strokeColor=none;fillColor=none;whiteSpace=wrap;" vertex="1" parent="4JFMtSHfGpqYQoD51Qb6-196">
          <mxGeometry y="42" width="200" height="16" as="geometry" />
        </mxCell>
        <mxCell id="4JFMtSHfGpqYQoD51Qb6-201" value="&quot;denied&quot;" style="html=1;align=left;spacing=0;spacingLeft=8;verticalAlign=middle;strokeColor=none;fillColor=none;whiteSpace=wrap;" vertex="1" parent="4JFMtSHfGpqYQoD51Qb6-196">
          <mxGeometry y="58" width="200" height="16" as="geometry" />
        </mxCell>
        <mxCell id="4JFMtSHfGpqYQoD51Qb6-202" value="&quot;approved&quot;" style="html=1;align=left;spacing=0;spacingLeft=8;verticalAlign=middle;strokeColor=none;fillColor=none;whiteSpace=wrap;" vertex="1" parent="4JFMtSHfGpqYQoD51Qb6-196">
          <mxGeometry y="74" width="200" height="16" as="geometry" />
        </mxCell>
        <mxCell id="4JFMtSHfGpqYQoD51Qb6-203" style="edgeStyle=none;html=1;entryX=1.004;entryY=0.821;entryDx=0;entryDy=0;entryPerimeter=0;" edge="1" parent="1" source="4JFMtSHfGpqYQoD51Qb6-181" target="4JFMtSHfGpqYQoD51Qb6-173">
          <mxGeometry relative="0" as="geometry" />
        </mxCell>
        <mxCell id="4JFMtSHfGpqYQoD51Qb6-204" style="edgeStyle=none;html=1;exitX=0;exitY=0;exitDx=0;exitDy=0;entryX=0.917;entryY=1.013;entryDx=0;entryDy=0;entryPerimeter=0;" edge="1" parent="1" source="4JFMtSHfGpqYQoD51Qb6-181" target="4JFMtSHfGpqYQoD51Qb6-120">
          <mxGeometry relative="0" as="geometry" />
        </mxCell>
        <mxCell id="4JFMtSHfGpqYQoD51Qb6-205" value="event_organizer" style="swimlane;fontStyle=0;childLayout=stackLayout;horizontal=1;startSize=26;fillColor=none;horizontalStack=0;resizeParent=1;resizeParentMax=0;resizeLast=0;collapsible=1;marginBottom=0;whiteSpace=wrap;html=1;" vertex="1" parent="1">
          <mxGeometry x="280" y="400" width="250" height="104" as="geometry" />
        </mxCell>
        <mxCell id="4JFMtSHfGpqYQoD51Qb6-206" value="+ id: UUID" style="text;strokeColor=none;fillColor=none;align=left;verticalAlign=top;spacingLeft=4;spacingRight=4;overflow=hidden;rotatable=0;points=[[0,0.5],[1,0.5]];portConstraint=eastwest;whiteSpace=wrap;html=1;" vertex="1" parent="4JFMtSHfGpqYQoD51Qb6-205">
          <mxGeometry y="26" width="250" height="26" as="geometry" />
        </mxCell>
        <mxCell id="4JFMtSHfGpqYQoD51Qb6-207" value="+ event: Event" style="text;strokeColor=none;fillColor=none;align=left;verticalAlign=top;spacingLeft=4;spacingRight=4;overflow=hidden;rotatable=0;points=[[0,0.5],[1,0.5]];portConstraint=eastwest;whiteSpace=wrap;html=1;" vertex="1" parent="4JFMtSHfGpqYQoD51Qb6-205">
          <mxGeometry y="52" width="250" height="26" as="geometry" />
        </mxCell>
        <mxCell id="4JFMtSHfGpqYQoD51Qb6-208" value="+ organizer: User" style="text;strokeColor=none;fillColor=none;align=left;verticalAlign=top;spacingLeft=4;spacingRight=4;overflow=hidden;rotatable=0;points=[[0,0.5],[1,0.5]];portConstraint=eastwest;whiteSpace=wrap;html=1;" vertex="1" parent="4JFMtSHfGpqYQoD51Qb6-205">
          <mxGeometry y="78" width="250" height="26" as="geometry" />
        </mxCell>
        <mxCell id="4JFMtSHfGpqYQoD51Qb6-209" style="edgeStyle=none;html=1;entryX=0.987;entryY=0.288;entryDx=0;entryDy=0;entryPerimeter=0;" edge="1" parent="1" source="4JFMtSHfGpqYQoD51Qb6-205" target="4JFMtSHfGpqYQoD51Qb6-176">
          <mxGeometry relative="0" as="geometry" />
        </mxCell>
        <mxCell id="4JFMtSHfGpqYQoD51Qb6-210" style="edgeStyle=none;html=1;exitX=0.5;exitY=0;exitDx=0;exitDy=0;" edge="1" parent="1" source="4JFMtSHfGpqYQoD51Qb6-205" target="4JFMtSHfGpqYQoD51Qb6-145">
          <mxGeometry relative="0" as="geometry" />
        </mxCell>
        <mxCell id="4JFMtSHfGpqYQoD51Qb6-211" value="event_attendance" style="swimlane;fontStyle=0;childLayout=stackLayout;horizontal=1;startSize=26;fillColor=none;horizontalStack=0;resizeParent=1;resizeParentMax=0;resizeLast=0;collapsible=1;marginBottom=0;whiteSpace=wrap;html=1;" vertex="1" parent="1">
          <mxGeometry x="0" y="480" width="250" height="130" as="geometry" />
        </mxCell>
        <mxCell id="4JFMtSHfGpqYQoD51Qb6-212" value="+ id: UUID" style="text;strokeColor=none;fillColor=none;align=left;verticalAlign=top;spacingLeft=4;spacingRight=4;overflow=hidden;rotatable=0;points=[[0,0.5],[1,0.5]];portConstraint=eastwest;whiteSpace=wrap;html=1;" vertex="1" parent="4JFMtSHfGpqYQoD51Qb6-211">
          <mxGeometry y="26" width="250" height="26" as="geometry" />
        </mxCell>
        <mxCell id="4JFMtSHfGpqYQoD51Qb6-213" value="+ event: Event" style="text;strokeColor=none;fillColor=none;align=left;verticalAlign=top;spacingLeft=4;spacingRight=4;overflow=hidden;rotatable=0;points=[[0,0.5],[1,0.5]];portConstraint=eastwest;whiteSpace=wrap;html=1;" vertex="1" parent="4JFMtSHfGpqYQoD51Qb6-211">
          <mxGeometry y="52" width="250" height="26" as="geometry" />
        </mxCell>
        <mxCell id="4JFMtSHfGpqYQoD51Qb6-214" value="+ attendeee: User" style="text;strokeColor=none;fillColor=none;align=left;verticalAlign=top;spacingLeft=4;spacingRight=4;overflow=hidden;rotatable=0;points=[[0,0.5],[1,0.5]];portConstraint=eastwest;whiteSpace=wrap;html=1;" vertex="1" parent="4JFMtSHfGpqYQoD51Qb6-211">
          <mxGeometry y="78" width="250" height="26" as="geometry" />
        </mxCell>
        <mxCell id="4JFMtSHfGpqYQoD51Qb6-215" value="+ status: EventAttendanceStatus" style="text;strokeColor=none;fillColor=none;align=left;verticalAlign=top;spacingLeft=4;spacingRight=4;overflow=hidden;rotatable=0;points=[[0,0.5],[1,0.5]];portConstraint=eastwest;whiteSpace=wrap;html=1;" vertex="1" parent="4JFMtSHfGpqYQoD51Qb6-211">
          <mxGeometry y="104" width="250" height="26" as="geometry" />
        </mxCell>
        <mxCell id="4JFMtSHfGpqYQoD51Qb6-216" style="edgeStyle=none;html=1;entryX=0.974;entryY=0.122;entryDx=0;entryDy=0;entryPerimeter=0;exitX=0.5;exitY=0;exitDx=0;exitDy=0;" edge="1" parent="1" source="4JFMtSHfGpqYQoD51Qb6-211" target="4JFMtSHfGpqYQoD51Qb6-177">
          <mxGeometry relative="0" as="geometry">
            </mxGeometry>
        </mxCell>
        <mxCell id="4JFMtSHfGpqYQoD51Qb6-217" style="edgeStyle=none;html=1;entryX=0.488;entryY=1.083;entryDx=0;entryDy=0;entryPerimeter=0;" edge="1" parent="1" source="4JFMtSHfGpqYQoD51Qb6-211" target="4JFMtSHfGpqYQoD51Qb6-145">
          <mxGeometry relative="0" as="geometry" />
        </mxCell>
        <mxCell id="4JFMtSHfGpqYQoD51Qb6-218" value="" style="fontStyle=1;align=center;verticalAlign=middle;childLayout=stackLayout;horizontal=1;horizontalStack=0;resizeParent=1;resizeParentMax=0;resizeLast=0;marginBottom=0;" vertex="1" parent="1">
          <mxGeometry x="140" y="480" width="200" height="74" as="geometry" />
        </mxCell>
        <mxCell id="4JFMtSHfGpqYQoD51Qb6-219" value="&amp;lt;&amp;lt;enumeration&amp;gt;&amp;gt;" style="html=1;align=center;spacing=0;verticalAlign=middle;strokeColor=none;fillColor=none;whiteSpace=wrap;" vertex="1" parent="4JFMtSHfGpqYQoD51Qb6-218">
          <mxGeometry width="200" height="20" as="geometry" />
        </mxCell>
        <mxCell id="4JFMtSHfGpqYQoD51Qb6-220" value="ParticipationType" style="html=1;align=center;spacing=0;verticalAlign=middle;strokeColor=none;fillColor=none;whiteSpace=wrap;fontStyle=1;" vertex="1" parent="4JFMtSHfGpqYQoD51Qb6-218">
          <mxGeometry y="20" width="200" height="14" as="geometry" />
        </mxCell>
        <mxCell id="4JFMtSHfGpqYQoD51Qb6-221" value="" style="line;strokeWidth=0.25;fillColor=none;align=left;verticalAlign=middle;spacingTop=-1;spacingLeft=3;spacingRight=3;rotatable=0;labelPosition=right;points=[];portConstraint=eastwest;" vertex="1" parent="4JFMtSHfGpqYQoD51Qb6-218">
          <mxGeometry y="34" width="200" height="8" as="geometry" />
        </mxCell>
        <mxCell id="4JFMtSHfGpqYQoD51Qb6-222" value="&quot;public&quot;" style="html=1;align=left;spacing=0;spacingLeft=8;verticalAlign=middle;strokeColor=none;fillColor=none;whiteSpace=wrap;" vertex="1" parent="4JFMtSHfGpqYQoD51Qb6-218">
          <mxGeometry y="42" width="200" height="16" as="geometry" />
        </mxCell>
        <mxCell id="4JFMtSHfGpqYQoD51Qb6-223" value="&quot;university&quot;" style="html=1;align=left;spacing=0;spacingLeft=8;verticalAlign=middle;strokeColor=none;fillColor=none;whiteSpace=wrap;" vertex="1" parent="4JFMtSHfGpqYQoD51Qb6-218">
          <mxGeometry y="58" width="200" height="16" as="geometry" />
        </mxCell>
        <mxCell id="4JFMtSHfGpqYQoD51Qb6-224" value="" style="fontStyle=1;align=center;verticalAlign=middle;childLayout=stackLayout;horizontal=1;horizontalStack=0;resizeParent=1;resizeParentMax=0;resizeLast=0;marginBottom=0;" vertex="1" parent="1">
          <mxGeometry x="280" y="480" width="200" height="90" as="geometry" />
        </mxCell>
        <mxCell id="4JFMtSHfGpqYQoD51Qb6-225" value="&amp;lt;&amp;lt;enumeration&amp;gt;&amp;gt;" style="html=1;align=center;spacing=0;verticalAlign=middle;strokeColor=none;fillColor=none;whiteSpace=wrap;" vertex="1" parent="4JFMtSHfGpqYQoD51Qb6-224">
          <mxGeometry width="200" height="20" as="geometry" />
        </mxCell>
        <mxCell id="4JFMtSHfGpqYQoD51Qb6-226" value="EventAttendanceStatusType" style="html=1;align=center;spacing=0;verticalAlign=middle;strokeColor=none;fillColor=none;whiteSpace=wrap;fontStyle=1;" vertex="1" parent="4JFMtSHfGpqYQoD51Qb6-224">
          <mxGeometry y="20" width="200" height="14" as="geometry" />
        </mxCell>
        <mxCell id="4JFMtSHfGpqYQoD51Qb6-227" value="" style="line;strokeWidth=0.25;fillColor=none;align=left;verticalAlign=middle;spacingTop=-1;spacingLeft=3;spacingRight=3;rotatable=0;labelPosition=right;points=[];portConstraint=eastwest;" vertex="1" parent="4JFMtSHfGpqYQoD51Qb6-224">
          <mxGeometry y="34" width="200" height="8" as="geometry" />
        </mxCell>
        <mxCell id="4JFMtSHfGpqYQoD51Qb6-228" value="&quot;pending&quot;" style="html=1;align=left;spacing=0;spacingLeft=8;verticalAlign=middle;strokeColor=none;fillColor=none;whiteSpace=wrap;" vertex="1" parent="4JFMtSHfGpqYQoD51Qb6-224">
          <mxGeometry y="42" width="200" height="16" as="geometry" />
        </mxCell>
        <mxCell id="4JFMtSHfGpqYQoD51Qb6-229" value="&quot;accepted&quot;" style="html=1;align=left;spacing=0;spacingLeft=8;verticalAlign=middle;strokeColor=none;fillColor=none;whiteSpace=wrap;" vertex="1" parent="4JFMtSHfGpqYQoD51Qb6-224">
          <mxGeometry y="58" width="200" height="16" as="geometry" />
        </mxCell>
        <mxCell id="4JFMtSHfGpqYQoD51Qb6-230" value="&quot;declined&quot;" style="html=1;align=left;spacing=0;spacingLeft=8;verticalAlign=middle;strokeColor=none;fillColor=none;whiteSpace=wrap;" vertex="1" parent="4JFMtSHfGpqYQoD51Qb6-224">
          <mxGeometry y="74" width="200" height="16" as="geometry" />
        </mxCell>
      </root>
    </mxGraphModel>
  </diagram>
</mxfile>